<?xml version="1.0" encoding="UTF-8" standalone="no"?>
<!DOCTYPE svg PUBLIC "-//W3C//DTD SVG 1.1//EN" "http://www.w3.org/Graphics/SVG/1.1/DTD/svg11.dtd">
<svg xmlns:xl="http://www.w3.org/1999/xlink" xmlns:dc="http://purl.org/dc/elements/1.1/" xmlns="http://www.w3.org/2000/svg" version="1.1" viewBox="-22.5 666 860 618.7" width="860" height="618.7">
  <defs>
    <marker orient="auto" overflow="visible" markerUnits="strokeWidth" id="FilledArrow_Marker" stroke-linejoin="miter" stroke-miterlimit="10" viewBox="-1 -3 7 6" markerWidth="7" markerHeight="6" color="black">
      <g>
        <path d="M 4.8 0 L 0 -1.8 L 0 1.8 Z" fill="currentColor" stroke="currentColor" stroke-width="1"/>
      </g>
    </marker>
  </defs>
  <g id="mix_column_transformation" fill-opacity="1" stroke-opacity="1" fill="none" stroke-dasharray="none" stroke="none">
    <title>mix_column_transformation</title>
    <rect fill="white" x="-22.5" y="666" width="860" height="618.7"/>
    <g id="mix_column_transformation_Layer_1">
      <title>Layer 1</title>
      <g id="Graphic_981">
        <rect x="274.5" y="666.5" width="264" height="185" stroke="black" stroke-linecap="round" stroke-linejoin="round" stroke-width="1"/>
      </g>
      <g id="Graphic_808">
        <rect x="-22" y="893" width="64" height="64" fill="#b4b4b4" fill-opacity=".29947917"/>
        <rect x="-22" y="893" width="64" height="64" stroke="black" stroke-linecap="round" stroke-linejoin="round" stroke-width="1"/>
        <text transform="translate(-17 911)" fill="black">
          <tspan font-family="Helvetica" font-size="20" fill="black" x="11.29419" y="19">S</tspan>
          <tspan font-family="Helvetica" font-size="13" fill="black" y="25">0,0</tspan>
        </text>
      </g>
      <g id="Graphic_881">
        <rect x="42" y="893" width="64" height="64" fill="#b4b4b4" fill-opacity=".29947917"/>
        <rect x="42" y="893" width="64" height="64" stroke="black" stroke-linecap="round" stroke-linejoin="round" stroke-width="1"/>
        <text transform="translate(47 911)" fill="black">
          <tspan font-family="Helvetica" font-size="20" fill="black" x="11.29419" y="19">S</tspan>
          <tspan font-family="Helvetica" font-size="13" fill="black" y="25">0,1</tspan>
        </text>
      </g>
      <g id="Graphic_882">
        <rect x="106" y="893" width="64" height="64" fill="#b4b4b4" fill-opacity=".29947917"/>
        <rect x="106" y="893" width="64" height="64" stroke="black" stroke-linecap="round" stroke-linejoin="round" stroke-width="1"/>
        <text transform="translate(111 911)" fill="black">
          <tspan font-family="Helvetica" font-size="20" fill="black" x="11.29419" y="19">S</tspan>
          <tspan font-family="Helvetica" font-size="13" fill="black" y="25">0,2</tspan>
        </text>
      </g>
      <g id="Graphic_883">
        <rect x="170" y="893" width="64" height="64" fill="#b4b4b4" fill-opacity=".29947917"/>
        <rect x="170" y="893" width="64" height="64" stroke="black" stroke-linecap="round" stroke-linejoin="round" stroke-width="1"/>
        <text transform="translate(175 911)" fill="black">
          <tspan font-family="Helvetica" font-size="20" fill="black" x="11.29419" y="19">S</tspan>
          <tspan font-family="Helvetica" font-size="13" fill="black" y="25">0,3</tspan>
        </text>
      </g>
      <g id="Graphic_887">
        <rect x="-22" y="957" width="64" height="64" fill="#ccc"/>
        <rect x="-22" y="957" width="64" height="64" stroke="black" stroke-linecap="round" stroke-linejoin="round" stroke-width="1"/>
        <text transform="translate(-17 975)" fill="black">
          <tspan font-family="Helvetica" font-size="20" fill="black" x="11.29419" y="19">S</tspan>
          <tspan font-family="Helvetica" font-size="13" fill="black" y="25">1,0</tspan>
        </text>
      </g>
      <g id="Graphic_886">
        <rect x="42" y="957" width="64" height="64" fill="#ccc"/>
        <rect x="42" y="957" width="64" height="64" stroke="black" stroke-linecap="round" stroke-linejoin="round" stroke-width="1"/>
        <text transform="translate(47 975)" fill="black">
          <tspan font-family="Helvetica" font-size="20" fill="black" x="11.29419" y="19">S</tspan>
          <tspan font-family="Helvetica" font-size="13" fill="black" y="25">1,1</tspan>
        </text>
      </g>
      <g id="Graphic_885">
        <rect x="106" y="957" width="64" height="64" fill="#ccc"/>
        <rect x="106" y="957" width="64" height="64" stroke="black" stroke-linecap="round" stroke-linejoin="round" stroke-width="1"/>
        <text transform="translate(111 975)" fill="black">
          <tspan font-family="Helvetica" font-size="20" fill="black" x="11.29419" y="19">S</tspan>
          <tspan font-family="Helvetica" font-size="13" fill="black" y="25">1,2</tspan>
        </text>
      </g>
      <g id="Graphic_884">
        <rect x="170" y="957" width="64" height="64" fill="#ccc"/>
        <rect x="170" y="957" width="64" height="64" stroke="black" stroke-linecap="round" stroke-linejoin="round" stroke-width="1"/>
        <text transform="translate(175 975)" fill="black">
          <tspan font-family="Helvetica" font-size="20" fill="black" x="11.29419" y="19">S</tspan>
          <tspan font-family="Helvetica" font-size="13" fill="black" y="25">1,3</tspan>
        </text>
      </g>
      <g id="Graphic_891">
        <rect x="-22" y="1021" width="64" height="64" fill="#b4b4b4" fill-opacity=".29947917"/>
        <rect x="-22" y="1021" width="64" height="64" stroke="black" stroke-linecap="round" stroke-linejoin="round" stroke-width="1"/>
        <text transform="translate(-17 1039)" fill="black">
          <tspan font-family="Helvetica" font-size="20" fill="black" x="11.29419" y="19">S</tspan>
          <tspan font-family="Helvetica" font-size="13" fill="black" y="25">2,0</tspan>
        </text>
      </g>
      <g id="Graphic_890">
        <rect x="42" y="1021" width="64" height="64" fill="#b4b4b4" fill-opacity=".29947917"/>
        <rect x="42" y="1021" width="64" height="64" stroke="black" stroke-linecap="round" stroke-linejoin="round" stroke-width="1"/>
        <text transform="translate(47 1039)" fill="black">
          <tspan font-family="Helvetica" font-size="20" fill="black" x="11.29419" y="19">S</tspan>
          <tspan font-family="Helvetica" font-size="13" fill="black" y="25">2,1</tspan>
        </text>
      </g>
      <g id="Graphic_889">
        <rect x="106" y="1021" width="64" height="64" fill="#b4b4b4" fill-opacity=".29947917"/>
        <rect x="106" y="1021" width="64" height="64" stroke="black" stroke-linecap="round" stroke-linejoin="round" stroke-width="1"/>
        <text transform="translate(111 1039)" fill="black">
          <tspan font-family="Helvetica" font-size="20" fill="black" x="11.29419" y="19">S</tspan>
          <tspan font-family="Helvetica" font-size="13" fill="black" y="25">2,2</tspan>
        </text>
      </g>
      <g id="Graphic_888">
        <rect x="170" y="1021" width="64" height="64" fill="#b4b4b4" fill-opacity=".29947917"/>
        <rect x="170" y="1021" width="64" height="64" stroke="black" stroke-linecap="round" stroke-linejoin="round" stroke-width="1"/>
        <text transform="translate(175 1039)" fill="black">
          <tspan font-family="Helvetica" font-size="20" fill="black" x="11.29419" y="19">S</tspan>
          <tspan font-family="Helvetica" font-size="13" fill="black" y="25">2,3</tspan>
        </text>
      </g>
      <g id="Graphic_895">
        <rect x="-22" y="1085" width="64" height="64" fill="#ccc"/>
        <rect x="-22" y="1085" width="64" height="64" stroke="black" stroke-linecap="round" stroke-linejoin="round" stroke-width="1"/>
        <text transform="translate(-17 1103)" fill="black">
          <tspan font-family="Helvetica" font-size="20" fill="black" x="11.29419" y="19">S</tspan>
          <tspan font-family="Helvetica" font-size="13" fill="black" y="25">3,0</tspan>
        </text>
      </g>
      <g id="Graphic_894">
        <rect x="42" y="1085" width="64" height="64" fill="#ccc"/>
        <rect x="42" y="1085" width="64" height="64" stroke="black" stroke-linecap="round" stroke-linejoin="round" stroke-width="1"/>
        <text transform="translate(47 1103)" fill="black">
          <tspan font-family="Helvetica" font-size="20" fill="black" x="11.29419" y="19">S</tspan>
          <tspan font-family="Helvetica" font-size="13" fill="black" y="25">3,1</tspan>
        </text>
      </g>
      <g id="Graphic_893">
        <rect x="106" y="1085" width="64" height="64" fill="#ccc"/>
        <rect x="106" y="1085" width="64" height="64" stroke="black" stroke-linecap="round" stroke-linejoin="round" stroke-width="1"/>
        <text transform="translate(111 1103)" fill="black">
          <tspan font-family="Helvetica" font-size="20" fill="black" x="11.29419" y="19">S</tspan>
          <tspan font-family="Helvetica" font-size="13" fill="black" y="25">3,2</tspan>
        </text>
      </g>
      <g id="Graphic_892">
        <rect x="170" y="1085" width="64" height="64" fill="#ccc"/>
        <rect x="170" y="1085" width="64" height="64" stroke="black" stroke-linecap="round" stroke-linejoin="round" stroke-width="1"/>
        <text transform="translate(175 1103)" fill="black">
          <tspan font-family="Helvetica" font-size="20" fill="black" x="11.29419" y="19">S</tspan>
          <tspan font-family="Helvetica" font-size="13" fill="black" y="25">3,3</tspan>
        </text>
      </g>
      <g id="Graphic_954">
        <rect x="581" y="893" width="64" height="64" fill="#b4b4b4" fill-opacity=".29947917"/>
        <rect x="581" y="893" width="64" height="64" stroke="black" stroke-linecap="round" stroke-linejoin="round" stroke-width="1"/>
        <text transform="translate(586 911)" fill="black">
          <tspan font-family="Helvetica" font-size="20" fill="black" x="9.38501" y="19">S&apos;</tspan>
          <tspan font-family="Helvetica" font-size="13" fill="black" y="25">0,0</tspan>
        </text>
      </g>
      <g id="Graphic_953">
        <rect x="645" y="893" width="64" height="64" fill="#b4b4b4" fill-opacity=".29947917"/>
        <rect x="645" y="893" width="64" height="64" stroke="black" stroke-linecap="round" stroke-linejoin="round" stroke-width="1"/>
        <text transform="translate(650 911)" fill="black">
          <tspan font-family="Helvetica" font-size="20" fill="black" x="9.38501" y="19">S&apos;</tspan>
          <tspan font-family="Helvetica" font-size="13" fill="black" y="25">0,1</tspan>
        </text>
      </g>
      <g id="Graphic_952">
        <rect x="709" y="893" width="64" height="64" fill="#b4b4b4" fill-opacity=".29947917"/>
        <rect x="709" y="893" width="64" height="64" stroke="black" stroke-linecap="round" stroke-linejoin="round" stroke-width="1"/>
        <text transform="translate(714 911)" fill="black">
          <tspan font-family="Helvetica" font-size="20" fill="black" x="9.38501" y="19">S&apos;</tspan>
          <tspan font-family="Helvetica" font-size="13" fill="black" y="25">0,2</tspan>
        </text>
      </g>
      <g id="Graphic_951">
        <rect x="773" y="893" width="64" height="64" fill="#b4b4b4" fill-opacity=".29947917"/>
        <rect x="773" y="893" width="64" height="64" stroke="black" stroke-linecap="round" stroke-linejoin="round" stroke-width="1"/>
        <text transform="translate(778 911)" fill="black">
          <tspan font-family="Helvetica" font-size="20" fill="black" x="9.38501" y="19">S&apos;</tspan>
          <tspan font-family="Helvetica" font-size="13" fill="black" y="25">0,3</tspan>
        </text>
      </g>
      <g id="Graphic_950">
        <rect x="581" y="957" width="64" height="64" fill="#ccc"/>
        <rect x="581" y="957" width="64" height="64" stroke="black" stroke-linecap="round" stroke-linejoin="round" stroke-width="1"/>
        <text transform="translate(586 975)" fill="black">
          <tspan font-family="Helvetica" font-size="20" fill="black" x="9.38501" y="19">S&apos;</tspan>
          <tspan font-family="Helvetica" font-size="13" fill="black" y="25">1,0</tspan>
        </text>
      </g>
      <g id="Graphic_949">
        <rect x="645" y="957" width="64" height="64" fill="#ccc"/>
        <rect x="645" y="957" width="64" height="64" stroke="black" stroke-linecap="round" stroke-linejoin="round" stroke-width="1"/>
        <text transform="translate(650 975)" fill="black">
          <tspan font-family="Helvetica" font-size="20" fill="black" x="9.38501" y="19">S&apos;</tspan>
          <tspan font-family="Helvetica" font-size="13" fill="black" y="25">1,1</tspan>
        </text>
      </g>
      <g id="Graphic_948">
        <rect x="709" y="957" width="64" height="64" fill="#ccc"/>
        <rect x="709" y="957" width="64" height="64" stroke="black" stroke-linecap="round" stroke-linejoin="round" stroke-width="1"/>
        <text transform="translate(714 975)" fill="black">
          <tspan font-family="Helvetica" font-size="20" fill="black" x="9.38501" y="19">S&apos;</tspan>
          <tspan font-family="Helvetica" font-size="13" fill="black" y="25">1,2</tspan>
        </text>
      </g>
      <g id="Graphic_947">
        <rect x="773" y="957" width="64" height="64" fill="#ccc"/>
        <rect x="773" y="957" width="64" height="64" stroke="black" stroke-linecap="round" stroke-linejoin="round" stroke-width="1"/>
        <text transform="translate(778 975)" fill="black">
          <tspan font-family="Helvetica" font-size="20" fill="black" x="9.38501" y="19">S&apos;</tspan>
          <tspan font-family="Helvetica" font-size="13" fill="black" y="25">1,3</tspan>
        </text>
      </g>
      <g id="Graphic_946">
        <rect x="581" y="1021" width="64" height="64" fill="#b4b4b4" fill-opacity=".29947917"/>
        <rect x="581" y="1021" width="64" height="64" stroke="black" stroke-linecap="round" stroke-linejoin="round" stroke-width="1"/>
        <text transform="translate(586 1039)" fill="black">
          <tspan font-family="Helvetica" font-size="20" fill="black" x="9.38501" y="19">S&apos;</tspan>
          <tspan font-family="Helvetica" font-size="13" fill="black" y="25">2,0</tspan>
        </text>
      </g>
      <g id="Graphic_945">
        <rect x="645" y="1021" width="64" height="64" fill="#b4b4b4" fill-opacity=".29947917"/>
        <rect x="645" y="1021" width="64" height="64" stroke="black" stroke-linecap="round" stroke-linejoin="round" stroke-width="1"/>
        <text transform="translate(650 1039)" fill="black">
          <tspan font-family="Helvetica" font-size="20" fill="black" x="9.38501" y="19">S&apos;</tspan>
          <tspan font-family="Helvetica" font-size="13" fill="black" y="25">2,1</tspan>
        </text>
      </g>
      <g id="Graphic_944">
        <rect x="709" y="1021" width="64" height="64" fill="#b4b4b4" fill-opacity=".29947917"/>
        <rect x="709" y="1021" width="64" height="64" stroke="black" stroke-linecap="round" stroke-linejoin="round" stroke-width="1"/>
        <text transform="translate(714 1039)" fill="black">
          <tspan font-family="Helvetica" font-size="20" fill="black" x="9.38501" y="19">S&apos;</tspan>
          <tspan font-family="Helvetica" font-size="13" fill="black" y="25">2,2</tspan>
        </text>
      </g>
      <g id="Graphic_943">
        <rect x="773" y="1021" width="64" height="64" fill="#b4b4b4" fill-opacity=".29947917"/>
        <rect x="773" y="1021" width="64" height="64" stroke="black" stroke-linecap="round" stroke-linejoin="round" stroke-width="1"/>
        <text transform="translate(778 1039)" fill="black">
          <tspan font-family="Helvetica" font-size="20" fill="black" x="9.38501" y="19">S&apos;</tspan>
          <tspan font-family="Helvetica" font-size="13" fill="black" y="25">2,3</tspan>
        </text>
      </g>
      <g id="Graphic_942">
        <rect x="581" y="1085" width="64" height="64" fill="#ccc"/>
        <rect x="581" y="1085" width="64" height="64" stroke="black" stroke-linecap="round" stroke-linejoin="round" stroke-width="1"/>
        <text transform="translate(586 1103)" fill="black">
          <tspan font-family="Helvetica" font-size="20" fill="black" x="9.38501" y="19">S&apos;</tspan>
          <tspan font-family="Helvetica" font-size="13" fill="black" y="25">3,0</tspan>
        </text>
      </g>
      <g id="Graphic_941">
        <rect x="645" y="1085" width="64" height="64" fill="#ccc"/>
        <rect x="645" y="1085" width="64" height="64" stroke="black" stroke-linecap="round" stroke-linejoin="round" stroke-width="1"/>
        <text transform="translate(650 1103)" fill="black">
          <tspan font-family="Helvetica" font-size="20" fill="black" x="9.38501" y="19">S&apos;</tspan>
          <tspan font-family="Helvetica" font-size="13" fill="black" y="25">3,1</tspan>
        </text>
      </g>
      <g id="Graphic_940">
        <rect x="709" y="1085" width="64" height="64" fill="#ccc"/>
        <rect x="709" y="1085" width="64" height="64" stroke="black" stroke-linecap="round" stroke-linejoin="round" stroke-width="1"/>
        <text transform="translate(714 1103)" fill="black">
          <tspan font-family="Helvetica" font-size="20" fill="black" x="9.38501" y="19">S&apos;</tspan>
          <tspan font-family="Helvetica" font-size="13" fill="black" y="25">3,2</tspan>
        </text>
      </g>
      <g id="Graphic_939">
        <rect x="773" y="1085" width="64" height="64" fill="#ccc"/>
        <rect x="773" y="1085" width="64" height="64" stroke="black" stroke-linecap="round" stroke-linejoin="round" stroke-width="1"/>
        <text transform="translate(778 1103)" fill="black">
          <tspan font-family="Helvetica" font-size="20" fill="black" x="9.38501" y="19">S&apos;</tspan>
          <tspan font-family="Helvetica" font-size="13" fill="black" y="25">3,3</tspan>
        </text>
      </g>
      <g id="Group_980">
        <g id="Graphic_970">
          <rect x="307" y="704.3" width="28" height="28" fill="white"/>
          <text transform="translate(307 706.3)" fill="black">
            <tspan font-family="Helvetica" font-size="20" fill="black" x="8.438477" y="19">2</tspan>
          </text>
        </g>
        <g id="Graphic_969">
          <rect x="335" y="704.3" width="28" height="28" fill="white"/>
          <text transform="translate(335 706.3)" fill="black">
            <tspan font-family="Helvetica" font-size="20" fill="black" x="8.438477" y="19">3</tspan>
          </text>
        </g>
        <g id="Graphic_968">
          <rect x="363" y="704.3" width="28" height="28" fill="white"/>
          <text transform="translate(363 706.3)" fill="black">
            <tspan font-family="Helvetica" font-size="20" fill="black" x="8.438477" y="19">1</tspan>
          </text>
        </g>
        <g id="Graphic_967">
          <rect x="391" y="704.3" width="28" height="28" fill="white"/>
          <text transform="translate(391 706.3)" fill="black">
            <tspan font-family="Helvetica" font-size="20" fill="black" x="8.438477" y="19">1</tspan>
          </text>
        </g>
        <g id="Graphic_966">
          <rect x="307" y="732.3" width="28" height="28" fill="white"/>
          <text transform="translate(307 734.3)" fill="black">
            <tspan font-family="Helvetica" font-size="20" fill="black" x="8.438477" y="19">1</tspan>
          </text>
        </g>
        <g id="Graphic_965">
          <rect x="335" y="732.3" width="28" height="28" fill="white"/>
          <text transform="translate(335 734.3)" fill="black">
            <tspan font-family="Helvetica" font-size="20" fill="black" x="8.438477" y="19">2</tspan>
          </text>
        </g>
        <g id="Graphic_964">
          <rect x="363" y="732.3" width="28" height="28" fill="white"/>
          <text transform="translate(363 734.3)" fill="black">
            <tspan font-family="Helvetica" font-size="20" fill="black" x="8.438477" y="19">3</tspan>
          </text>
        </g>
        <g id="Graphic_963">
          <rect x="391" y="732.3" width="28" height="28" fill="white"/>
          <text transform="translate(391 734.3)" fill="black">
            <tspan font-family="Helvetica" font-size="20" fill="black" x="8.438477" y="19">1</tspan>
          </text>
        </g>
        <g id="Graphic_962">
          <rect x="307" y="760.3" width="28" height="28" fill="white"/>
          <text transform="translate(307 762.3)" fill="black">
            <tspan font-family="Helvetica" font-size="20" fill="black" x="8.438477" y="19">1</tspan>
          </text>
        </g>
        <g id="Graphic_961">
          <rect x="335" y="788.3" width="28" height="28" fill="white"/>
          <text transform="translate(335 790.3)" fill="black">
            <tspan font-family="Helvetica" font-size="20" fill="black" x="8.438477" y="19">1</tspan>
          </text>
        </g>
        <g id="Graphic_960">
          <rect x="363" y="760.3" width="28" height="28" fill="white"/>
          <text transform="translate(363 762.3)" fill="black">
            <tspan font-family="Helvetica" font-size="20" fill="black" x="8.438477" y="19">2</tspan>
          </text>
        </g>
        <g id="Graphic_959">
          <rect x="391" y="760.3" width="28" height="28" fill="white"/>
          <text transform="translate(391 762.3)" fill="black">
            <tspan font-family="Helvetica" font-size="20" fill="black" x="8.438477" y="19">3</tspan>
          </text>
        </g>
        <g id="Graphic_958">
          <rect x="307" y="788.3" width="28" height="28" fill="white"/>
          <text transform="translate(307 790.3)" fill="black">
            <tspan font-family="Helvetica" font-size="20" fill="black" x="8.438477" y="19">3</tspan>
          </text>
        </g>
        <g id="Graphic_957">
          <rect x="335" y="760.3" width="28" height="28" fill="white"/>
          <text transform="translate(335 762.3)" fill="black">
            <tspan font-family="Helvetica" font-size="20" fill="black" x="8.438477" y="19">1</tspan>
          </text>
        </g>
        <g id="Graphic_956">
          <rect x="363" y="788.3" width="28" height="28" fill="white"/>
          <text transform="translate(363 790.3)" fill="black">
            <tspan font-family="Helvetica" font-size="20" fill="black" x="8.438477" y="19">1</tspan>
          </text>
        </g>
        <g id="Graphic_955">
          <rect x="391" y="788.3" width="28" height="28" fill="white"/>
          <text transform="translate(391 790.3)" fill="black">
            <tspan font-family="Helvetica" font-size="20" fill="black" x="8.438477" y="19">2</tspan>
          </text>
        </g>
        <g id="Graphic_971">
          <rect x="307" y="698.5" width="112" height="123" stroke="black" stroke-linecap="round" stroke-linejoin="round" stroke-width="1"/>
        </g>
        <g id="Graphic_974">
          <rect x="442.6" y="699.4" width="22.8" height="123" stroke="black" stroke-linecap="round" stroke-linejoin="round" stroke-width="1"/>
        </g>
        <g id="Graphic_976">
          <rect x="486.75" y="699.4" width="22.8" height="123" stroke="black" stroke-linecap="round" stroke-linejoin="round" stroke-width="1"/>
        </g>
        <g id="Graphic_977">
          <text transform="translate(470.4 748)" fill="black">
            <tspan font-family="Helvetica" font-size="20" fill="black" x="0" y="19">=</tspan>
          </text>
        </g>
        <g id="Graphic_978">
          <text transform="translate(425.9203 748.9)" fill="black">
            <tspan font-family="Helvetica" font-size="20" fill="black" x="0" y="19">×</tspan>
          </text>
        </g>
      </g>
      <g id="Graphic_979"/>
      <g id="Line_982">
        <path d="M 202 893 L 202 814.5 L 261.6 814.5" marker-end="url(#FilledArrow_Marker)" stroke="black" stroke-linecap="round" stroke-linejoin="round" stroke-width="2"/>
      </g>
      <g id="Line_983">
        <path d="M 138 893 L 138 777.5 L 261.6 777.5" marker-end="url(#FilledArrow_Marker)" stroke="black" stroke-linecap="round" stroke-linejoin="round" stroke-width="2"/>
      </g>
      <g id="Line_984">
        <path d="M 74 893 L 74 740.5 L 261.6 740.5" marker-end="url(#FilledArrow_Marker)" stroke="black" stroke-linecap="round" stroke-linejoin="round" stroke-width="2"/>
      </g>
      <g id="Line_985">
        <path d="M 10 893 L 10 703.5 L 261.6 703.5" marker-end="url(#FilledArrow_Marker)" stroke="black" stroke-linecap="round" stroke-linejoin="round" stroke-width="2"/>
      </g>
      <g id="Line_986">
        <path d="M 538.5 703.5 L 613 703.5 L 613 734 L 613 771 L 613 808 L 613 912.1" marker-end="url(#FilledArrow_Marker)" stroke="black" stroke-linecap="round" stroke-linejoin="round" stroke-width="2"/>
      </g>
      <g id="Line_988">
        <path d="M 538.5 740.5 L 677 740.5 L 677 771 L 677 808 L 677 912.1" marker-end="url(#FilledArrow_Marker)" stroke="black" stroke-linecap="round" stroke-linejoin="round" stroke-width="2"/>
      </g>
      <g id="Line_989">
        <path d="M 538.5 777.5 L 741 777.5 L 741 808 L 741 912.1" marker-end="url(#FilledArrow_Marker)" stroke="black" stroke-linecap="round" stroke-linejoin="round" stroke-width="2"/>
      </g>
      <g id="Line_990">
        <path d="M 538.5 814.5 L 795.0935 814.5 L 795.0935 880.1" marker-end="url(#FilledArrow_Marker)" stroke="black" stroke-linecap="round" stroke-linejoin="round" stroke-width="2"/>
      </g>
      <g id="Graphic_991">
        <rect x="316" y="693" width="92" height="11.5" fill="white"/>
      </g>
      <g id="Graphic_993">
        <rect x="316" y="816.5" width="92" height="11.5" fill="white"/>
      </g>
      <g id="Graphic_994">
        <rect x="450.51515" y="816.5" width="7" height="11.5" fill="white"/>
      </g>
      <g id="Graphic_995">
        <rect x="450.51515" y="693" width="6.98" height="11.5" fill="white"/>
      </g>
      <g id="Graphic_996">
        <rect x="495" y="693" width="6.98" height="11.5" fill="white"/>
      </g>
      <g id="Graphic_997">
        <rect x="495" y="816.5" width="6.98" height="11.5" fill="white"/>
      </g>
    </g>
  </g>
</svg>
